<?xml version="1.0" encoding="UTF-8"?><svg id="a" xmlns="http://www.w3.org/2000/svg" viewBox="0 0 2510 3213.78"><path id="b" d="M1360.47,217.55C1524.73,1.06,1753.08,0,1753.08,0c0,0,33.97,203.54-129.21,399.61-174.23,209.36-372.27,175.1-372.27,175.1,0,0-37.19-164.66,108.88-357.17Zm-87.99,499.75c84.5,0,241.33-116.16,445.46-116.16,351.38,0,489.62,250.03,489.62,250.03,0,0-270.36,138.23-270.36,473.64,0,378.37,336.8,508.77,336.8,508.77,0,0-235.43,662.65-553.44,662.65-146.06,0-259.61-98.43-413.5-98.43s-312.46,102.1-413.82,102.1c-290.38,0-657.24-628.59-657.24-1133.88s310.52-757.92,601.78-757.92c189.34,0,336.27,109.19,434.71,109.19h0Z" fill="#fff"/><line id="c" x1="72.99" y1="3136.77" x2="2434.49" y2="3136.77" fill="none" stroke="#fff" stroke-linecap="round" stroke-linejoin="round" stroke-width="135"/><rect id="d" x="5" y="3063.78" width="2500" height="145" rx="72.5" ry="72.5" fill="none" stroke="#fff" stroke-miterlimit="10" stroke-width="10"/></svg>