<?xml version="1.0" encoding="UTF-8"?><svg id="a" xmlns="http://www.w3.org/2000/svg" viewBox="0 0 23 18.15"><g><circle cx="4.28" cy="4.28" r="1.97" fill="#fff"/><path d="M18.72,1c1.81,0,3.28,1.47,3.28,3.28s-1.47,3.28-3.28,3.28H4.28c-1.81,0-3.28-1.47-3.28-3.28S2.47,1,4.28,1h14.44m0-1H4.28C1.92,0,0,1.92,0,4.28s1.92,4.28,4.28,4.28h14.44c2.36,0,4.28-1.92,4.28-4.28S21.08,0,18.72,0h0Z" fill="#fff"/></g><path d="M18.72,9.59H4.28c-2.36,0-4.28,1.92-4.28,4.28s1.92,4.28,4.28,4.28h14.44c2.36,0,4.28-1.92,4.28-4.28s-1.92-4.28-4.28-4.28Zm0,6.56c-1.26,0-2.28-1.02-2.28-2.28s1.02-2.28,2.28-2.28,2.28,1.02,2.28,2.28-1.02,2.28-2.28,2.28Z" fill="#fff"/></svg>