<svg width="15" height="13" viewBox="0 0 15 13" fill="none" xmlns="http://www.w3.org/2000/svg">
<path d="M1.99961 0.5H5C5.09029 0.5 5.21528 0.537817 5.39665 0.654682C5.57869 0.771976 5.76568 0.933689 5.98727 1.12688L6.00081 1.13869C6.2063 1.31787 6.44443 1.52551 6.6934 1.68593C6.94852 1.85032 7.26638 2 7.63169 2H13C13.8284 2 14.5 2.67157 14.5 3.5V5C14.5 5.82843 13.8284 6.5 13 6.5H2C1.17157 6.5 0.5 5.82843 0.5 5V2C0.5 1.17145 1.17131 0.5 1.99961 0.5Z" stroke="white"/>
<rect x="0.5" y="4.5" width="14" height="8" rx="1.5" fill="#BF9D2C" stroke="white"/>
</svg>
